<svg width="1939" height="566" viewBox="0 0 1939 566" fill="none" xmlns="http://www.w3.org/2000/svg">
<circle cx="235.992" cy="465.015" r="48.9461" transform="rotate(-14.5351 235.992 465.015)" fill="#A099CB"/>
<path d="M287.376 67.7299C304.02 91.6227 313.81 119.664 315.673 148.783C317.537 177.901 311.402 206.974 297.94 232.818C284.479 258.662 264.21 280.279 239.353 295.303C214.497 310.327 186.012 318.179 157.017 317.997C128.022 317.815 99.6357 309.608 74.967 294.274C50.2984 278.939 30.2985 257.07 17.1577 231.059C4.01684 205.049 -1.75814 175.901 0.465161 146.808C2.68846 117.715 12.8243 89.7989 29.7626 66.1164L83.784 105.245C73.9811 118.951 68.1151 135.107 66.8284 151.944C65.5416 168.781 68.8839 185.65 76.489 200.704C84.0941 215.757 95.6688 228.414 109.946 237.288C124.222 246.163 140.65 250.913 157.431 251.018C174.211 251.123 190.697 246.579 205.082 237.884C219.468 229.189 231.198 216.678 238.989 201.721C246.78 186.765 250.33 169.939 249.252 153.087C248.174 136.235 242.508 120.006 232.875 106.178L287.376 67.7299Z" fill="#A099CB"/>
<circle cx="175.758" cy="321.684" r="48.9461" transform="rotate(-23.2357 175.758 321.684)" fill="#A099CB"/>
<path d="M660.695 58.671H723.765L798.707 219.314L874.02 58.671H936.719V318H875.504V187.779L813.547 318H783.867L722.281 187.779V318H660.695V58.671ZM978.636 318C972.206 318 966.641 315.774 961.941 311.322C957.489 306.87 955.263 301.429 955.263 294.998C955.263 288.32 957.489 282.631 961.941 277.932C966.641 273.233 972.206 270.883 978.636 270.883C985.314 270.883 990.879 273.233 995.331 277.932C1000.03 282.631 1002.38 288.32 1002.38 294.998C1002.38 301.429 1000.03 306.87 995.331 311.322C990.879 315.774 985.314 318 978.636 318ZM1117.3 58.671H1181.85L1285.36 318H1218.21L1197.44 264.576H1101.72L1080.94 318H1013.42L1117.3 58.671ZM1181.11 214.12L1149.58 126.935L1117.67 214.12H1181.11ZM1319.94 318C1313.51 318 1307.95 315.774 1303.25 311.322C1298.79 306.87 1296.57 301.429 1296.57 294.998C1296.57 288.32 1298.79 282.631 1303.25 277.932C1307.95 273.233 1313.51 270.883 1319.94 270.883C1326.62 270.883 1332.18 273.233 1336.64 277.932C1341.34 282.631 1343.69 288.32 1343.69 294.998C1343.69 301.429 1341.34 306.87 1336.64 311.322C1332.18 315.774 1326.62 318 1319.94 318ZM1362.15 58.671H1478.64C1509.06 58.671 1532.81 66.3383 1549.87 81.673C1567.19 97.0077 1575.84 119.02 1575.84 147.711C1575.84 167.003 1571.64 183.451 1563.23 197.054C1554.82 210.657 1542.95 220.798 1527.61 227.476L1573.62 318H1506.09L1464.91 236.751H1427.81V318H1362.15V58.671ZM1467.14 181.472C1480.25 181.472 1490.39 178.999 1497.56 174.052C1504.73 168.858 1508.32 160.078 1508.32 147.711C1508.32 134.85 1504.73 126.069 1497.56 121.37C1490.64 116.423 1480.49 113.95 1467.14 113.95H1427.81V181.472H1467.14ZM1610.52 318C1604.09 318 1598.53 315.774 1593.83 311.322C1589.38 306.87 1587.15 301.429 1587.15 294.998C1587.15 288.32 1589.38 282.631 1593.83 277.932C1598.53 273.233 1604.09 270.883 1610.52 270.883C1617.2 270.883 1622.77 273.233 1627.22 277.932C1631.92 282.631 1634.27 288.32 1634.27 294.998C1634.27 301.429 1631.92 306.87 1627.22 311.322C1622.77 315.774 1617.2 318 1610.52 318ZM1733.61 323.565C1717.28 323.565 1701.08 321.957 1685.01 318.742C1668.93 315.774 1655.7 311.569 1645.31 306.128V247.139C1658.66 254.064 1672.52 259.258 1686.86 262.721C1701.45 266.184 1715.3 267.915 1728.41 267.915C1740.53 267.915 1749.68 266.06 1755.87 262.35C1762.05 258.64 1765.14 253.322 1765.14 246.397C1765.14 241.203 1763.41 236.751 1759.95 233.041C1756.73 229.084 1751.91 225.497 1745.48 222.282C1739.05 219.067 1729.03 214.615 1715.43 208.926C1691.44 198.785 1674 187.532 1663.12 175.165C1652.23 162.798 1646.79 147.587 1646.79 129.532C1646.79 114.692 1650.87 101.46 1659.04 89.835C1667.45 78.2103 1679.07 69.1826 1693.91 62.752C1708.75 56.3213 1725.82 53.106 1745.11 53.106C1760.94 53.106 1775.04 54.3426 1787.4 56.816C1799.77 59.2893 1811.64 63.2467 1823.02 68.688V126.193C1801.25 114.816 1779.36 109.127 1757.35 109.127C1745.48 109.127 1735.96 111.106 1728.78 115.063C1721.86 118.773 1718.4 124.214 1718.4 131.387C1718.4 138.56 1721.98 144.372 1729.15 148.824C1736.33 153.276 1749.56 159.336 1768.85 167.003C1786.41 174.176 1800.02 181.225 1809.66 188.15C1819.56 195.075 1826.73 203.114 1831.18 212.265C1835.63 221.416 1837.86 233.041 1837.86 247.139C1837.86 271.13 1829.08 289.928 1811.52 303.531C1794.2 316.887 1768.23 323.565 1733.61 323.565Z" fill="white"/>
<path d="M373.499 350.328L393.597 403.73L413.647 350.328H429.294V420H417.236V397.031L418.432 366.311L397.856 420H389.195L368.666 366.358L369.863 397.031V420H357.804V350.328H373.499ZM463.366 420.957C455.997 420.957 450.016 418.644 445.422 414.019C440.86 409.361 438.579 403.172 438.579 395.452V394.017C438.579 388.849 439.568 384.239 441.546 380.188C443.556 376.104 446.363 372.93 449.968 370.665C453.573 368.4 457.592 367.268 462.027 367.268C469.077 367.268 474.516 369.517 478.344 374.015C482.204 378.513 484.134 384.877 484.134 393.107V397.797H450.303C450.654 402.072 452.073 405.453 454.562 407.941C457.082 410.43 460.24 411.674 464.036 411.674C469.364 411.674 473.702 409.521 477.052 405.214L483.321 411.195C481.247 414.29 478.472 416.698 474.994 418.421C471.549 420.112 467.673 420.957 463.366 420.957ZM461.979 376.599C458.789 376.599 456.205 377.715 454.227 379.948C452.281 382.181 451.037 385.292 450.494 389.279H472.65V388.418C472.394 384.526 471.358 381.591 469.539 379.613C467.721 377.604 465.201 376.599 461.979 376.599ZM512.512 411.674C515.415 411.674 517.823 410.828 519.737 409.138C521.652 407.447 522.672 405.357 522.8 402.869H533.758C533.63 406.091 532.625 409.106 530.743 411.913C528.861 414.688 526.309 416.89 523.087 418.517C519.865 420.144 516.388 420.957 512.655 420.957C505.414 420.957 499.672 418.612 495.429 413.923C491.186 409.233 489.065 402.757 489.065 394.495V393.299C489.065 385.419 491.17 379.119 495.381 374.397C499.592 369.644 505.334 367.268 512.608 367.268C518.764 367.268 523.773 369.07 527.633 372.675C531.525 376.248 533.567 380.953 533.758 386.791H522.8C522.672 383.824 521.652 381.384 519.737 379.47C517.855 377.556 515.447 376.599 512.512 376.599C508.748 376.599 505.845 377.97 503.803 380.714C501.761 383.425 500.724 387.557 500.693 393.107V394.974C500.693 400.588 501.697 404.783 503.707 407.559C505.749 410.302 508.684 411.674 512.512 411.674ZM552.039 373.871C555.835 369.469 560.637 367.268 566.443 367.268C577.48 367.268 583.079 373.568 583.238 386.169V420H571.61V386.6C571.61 383.027 570.829 380.507 569.266 379.039C567.734 377.54 565.47 376.79 562.471 376.79C557.813 376.79 554.336 378.864 552.039 383.011V420H540.411V346.5H552.039V373.871ZM624.01 420C623.499 419.011 623.053 417.4 622.67 415.167C618.969 419.027 614.44 420.957 609.08 420.957C603.88 420.957 599.637 419.474 596.352 416.507C593.066 413.54 591.423 409.871 591.423 405.501C591.423 399.982 593.465 395.755 597.548 392.82C601.663 389.854 607.533 388.37 615.157 388.37H622.287V384.973C622.287 382.293 621.538 380.156 620.038 378.561C618.539 376.934 616.258 376.12 613.195 376.12C610.548 376.12 608.378 376.79 606.688 378.13C604.997 379.438 604.151 381.113 604.151 383.154H592.524C592.524 380.315 593.465 377.667 595.347 375.211C597.229 372.723 599.781 370.777 603.003 369.373C606.257 367.969 609.878 367.268 613.865 367.268C619.927 367.268 624.76 368.799 628.364 371.861C631.969 374.892 633.819 379.167 633.915 384.686V408.037C633.915 412.695 634.569 416.411 635.877 419.187V420H624.01ZM611.233 411.626C613.53 411.626 615.684 411.068 617.693 409.951C619.735 408.835 621.266 407.335 622.287 405.453V395.691H616.019C611.712 395.691 608.474 396.441 606.305 397.94C604.136 399.44 603.051 401.561 603.051 404.305C603.051 406.538 603.785 408.324 605.252 409.664C606.751 410.972 608.745 411.626 611.233 411.626ZM658.704 355.64V368.225H667.844V376.838H658.704V405.74C658.704 407.718 659.087 409.154 659.853 410.047C660.65 410.908 662.054 411.339 664.064 411.339C665.403 411.339 666.759 411.179 668.131 410.86V419.856C665.483 420.59 662.931 420.957 660.475 420.957C651.542 420.957 647.076 416.028 647.076 406.171V376.838H638.559V368.225H647.076V355.64H658.704ZM701.916 378.848C700.385 378.592 698.806 378.465 697.179 378.465C691.851 378.465 688.262 380.507 686.412 384.59V420H674.784V368.225H685.886L686.173 374.015C688.98 369.517 692.872 367.268 697.849 367.268C699.507 367.268 700.879 367.491 701.964 367.938L701.916 378.848ZM703.401 393.634C703.401 388.562 704.406 384 706.416 379.948C708.426 375.865 711.249 372.739 714.886 370.569C718.522 368.368 722.701 367.268 727.423 367.268C734.409 367.268 740.072 369.517 744.41 374.015C748.781 378.513 751.141 384.478 751.492 391.911L751.54 394.639C751.54 399.743 750.551 404.305 748.573 408.324C746.627 412.344 743.82 415.454 740.151 417.655C736.515 419.856 732.304 420.957 727.519 420.957C720.213 420.957 714.359 418.533 709.957 413.684C705.587 408.803 703.401 402.311 703.401 394.208V393.634ZM715.029 394.639C715.029 399.966 716.13 404.145 718.331 407.176C720.532 410.174 723.595 411.674 727.519 411.674C731.442 411.674 734.489 410.143 736.658 407.08C738.859 404.018 739.96 399.535 739.96 393.634C739.96 388.402 738.827 384.255 736.562 381.192C734.329 378.13 731.283 376.599 727.423 376.599C723.627 376.599 720.612 378.114 718.379 381.145C716.146 384.143 715.029 388.641 715.029 394.639ZM770.204 368.225L770.539 374.206C774.367 369.58 779.392 367.268 785.612 367.268C796.395 367.268 801.882 373.44 802.073 385.786V420H790.445V386.456C790.445 383.17 789.727 380.746 788.292 379.183C786.888 377.588 784.575 376.79 781.353 376.79C776.664 376.79 773.171 378.911 770.874 383.154V420H759.246V368.225H770.204ZM824.374 420H812.746V368.225H824.374V420ZM812.028 354.778C812.028 352.992 812.586 351.508 813.703 350.328C814.851 349.148 816.478 348.558 818.584 348.558C820.689 348.558 822.316 349.148 823.465 350.328C824.613 351.508 825.187 352.992 825.187 354.778C825.187 356.533 824.613 358 823.465 359.181C822.316 360.329 820.689 360.903 818.584 360.903C816.478 360.903 814.851 360.329 813.703 359.181C812.586 358 812.028 356.533 812.028 354.778ZM856.389 411.674C859.292 411.674 861.7 410.828 863.614 409.138C865.528 407.447 866.549 405.357 866.677 402.869H877.635C877.507 406.091 876.502 409.106 874.62 411.913C872.738 414.688 870.186 416.89 866.964 418.517C863.742 420.144 860.264 420.957 856.532 420.957C849.291 420.957 843.548 418.612 839.306 413.923C835.063 409.233 832.941 402.757 832.941 394.495V393.299C832.941 385.419 835.047 379.119 839.258 374.397C843.469 369.644 849.211 367.268 856.484 367.268C862.641 367.268 867.65 369.07 871.51 372.675C875.402 376.248 877.443 380.953 877.635 386.791H866.677C866.549 383.824 865.528 381.384 863.614 379.47C861.732 377.556 859.323 376.599 856.389 376.599C852.624 376.599 849.721 377.97 847.68 380.714C845.638 383.425 844.601 387.557 844.569 393.107V394.974C844.569 400.588 845.574 404.783 847.584 407.559C849.625 410.302 852.56 411.674 856.389 411.674ZM913.477 405.932C913.477 403.858 912.616 402.279 910.893 401.194C909.203 400.11 906.379 399.153 902.424 398.323C898.468 397.494 895.166 396.441 892.518 395.165C886.712 392.358 883.809 388.29 883.809 382.963C883.809 378.497 885.692 374.764 889.456 371.766C893.22 368.767 898.005 367.268 903.811 367.268C910 367.268 914.993 368.799 918.789 371.861C922.617 374.924 924.531 378.896 924.531 383.776H912.903C912.903 381.543 912.074 379.693 910.415 378.226C908.756 376.726 906.555 375.977 903.811 375.977C901.259 375.977 899.17 376.567 897.543 377.747C895.948 378.927 895.15 380.507 895.15 382.484C895.15 384.271 895.9 385.659 897.399 386.647C898.899 387.636 901.929 388.641 906.491 389.662C911.053 390.651 914.626 391.847 917.21 393.251C919.826 394.623 921.756 396.282 923 398.228C924.276 400.174 924.914 402.534 924.914 405.31C924.914 409.967 922.984 413.747 919.124 416.65C915.264 419.521 910.207 420.957 903.955 420.957C899.712 420.957 895.932 420.191 892.614 418.66C889.296 417.129 886.712 415.023 884.862 412.344C883.012 409.664 882.087 406.777 882.087 403.683H893.38C893.539 406.426 894.576 408.548 896.49 410.047C898.404 411.514 900.94 412.248 904.098 412.248C907.161 412.248 909.49 411.674 911.085 410.525C912.68 409.345 913.477 407.814 913.477 405.932ZM986.503 420C985.992 419.011 985.546 417.4 985.163 415.167C981.462 419.027 976.932 420.957 971.573 420.957C966.373 420.957 962.13 419.474 958.844 416.507C955.559 413.54 953.916 409.871 953.916 405.501C953.916 399.982 955.957 395.755 960.041 392.82C964.156 389.854 970.026 388.37 977.65 388.37H984.78V384.973C984.78 382.293 984.03 380.156 982.531 378.561C981.032 376.934 978.751 376.12 975.688 376.12C973.04 376.12 970.871 376.79 969.18 378.13C967.49 379.438 966.644 381.113 966.644 383.154H955.016C955.016 380.315 955.957 377.667 957.84 375.211C959.722 372.723 962.274 370.777 965.496 369.373C968.75 367.969 972.371 367.268 976.358 367.268C982.419 367.268 987.252 368.799 990.857 371.861C994.462 374.892 996.312 379.167 996.408 384.686V408.037C996.408 412.695 997.062 416.411 998.37 419.187V420H986.503ZM973.726 411.626C976.023 411.626 978.177 411.068 980.186 409.951C982.228 408.835 983.759 407.335 984.78 405.453V395.691H978.511C974.205 395.691 970.967 396.441 968.798 397.94C966.628 399.44 965.544 401.561 965.544 404.305C965.544 406.538 966.277 408.324 967.745 409.664C969.244 410.972 971.238 411.626 973.726 411.626ZM1017.42 368.225L1017.75 374.206C1021.58 369.58 1026.6 367.268 1032.82 367.268C1043.61 367.268 1049.09 373.44 1049.29 385.786V420H1037.66V386.456C1037.66 383.17 1036.94 380.746 1035.5 379.183C1034.1 377.588 1031.79 376.79 1028.57 376.79C1023.88 376.79 1020.38 378.911 1018.09 383.154V420H1006.46V368.225H1017.42ZM1057.04 393.729C1057.04 385.754 1058.89 379.358 1062.59 374.541C1066.29 369.692 1071.25 367.268 1077.47 367.268C1082.96 367.268 1087.39 369.182 1090.78 373.01V346.5H1102.4V420H1091.88L1091.3 414.641C1087.82 418.852 1083.18 420.957 1077.38 420.957C1071.32 420.957 1066.4 418.517 1062.64 413.636C1058.91 408.755 1057.04 402.119 1057.04 393.729ZM1068.67 394.734C1068.67 399.998 1069.67 404.113 1071.68 407.08C1073.72 410.015 1076.61 411.482 1080.34 411.482C1085.1 411.482 1088.57 409.361 1090.78 405.118V383.011C1088.64 378.864 1085.19 376.79 1080.44 376.79C1076.67 376.79 1073.77 378.289 1071.73 381.288C1069.69 384.255 1068.67 388.737 1068.67 394.734ZM1161.74 393.155H1148.25V420H1136.14V350.328H1160.64C1168.68 350.328 1174.89 352.131 1179.26 355.735C1183.63 359.34 1185.81 364.556 1185.81 371.383C1185.81 376.04 1184.68 379.948 1182.41 383.106C1180.18 386.233 1177.06 388.641 1173.04 390.332L1188.68 419.378V420H1175.72L1161.74 393.155ZM1148.25 383.441H1160.69C1164.77 383.441 1167.96 382.421 1170.26 380.379C1172.56 378.305 1173.71 375.482 1173.71 371.909C1173.71 368.177 1172.64 365.29 1170.5 363.248C1168.39 361.206 1165.24 360.154 1161.02 360.09H1148.25V383.441ZM1192.03 393.634C1192.03 388.562 1193.04 384 1195.05 379.948C1197.06 375.865 1199.88 372.739 1203.52 370.569C1207.16 368.368 1211.33 367.268 1216.06 367.268C1223.04 367.268 1228.7 369.517 1233.04 374.015C1237.41 378.513 1239.77 384.478 1240.13 391.911L1240.17 394.639C1240.17 399.743 1239.18 404.305 1237.21 408.324C1235.26 412.344 1232.45 415.454 1228.78 417.655C1225.15 419.856 1220.94 420.957 1216.15 420.957C1208.85 420.957 1202.99 418.533 1198.59 413.684C1194.22 408.803 1192.03 402.311 1192.03 394.208V393.634ZM1203.66 394.639C1203.66 399.966 1204.76 404.145 1206.96 407.176C1209.17 410.174 1212.23 411.674 1216.15 411.674C1220.08 411.674 1223.12 410.143 1225.29 407.08C1227.49 404.018 1228.59 399.535 1228.59 393.634C1228.59 388.402 1227.46 384.255 1225.2 381.192C1222.96 378.13 1219.92 376.599 1216.06 376.599C1212.26 376.599 1209.25 378.114 1207.01 381.145C1204.78 384.143 1203.66 388.641 1203.66 394.639ZM1293.48 394.639C1293.48 402.678 1291.68 409.074 1288.07 413.827C1284.5 418.58 1279.57 420.957 1273.29 420.957C1267.23 420.957 1262.51 418.772 1259.12 414.401L1258.55 420H1248.02V346.5H1259.65V373.201C1263 369.245 1267.51 367.268 1273.19 367.268C1279.51 367.268 1284.47 369.612 1288.07 374.302C1291.68 378.991 1293.48 385.547 1293.48 393.969V394.639ZM1281.85 393.634C1281.85 388.019 1280.87 383.808 1278.89 381.001C1276.91 378.194 1274.04 376.79 1270.27 376.79C1265.23 376.79 1261.69 378.991 1259.65 383.394V404.735C1261.72 409.233 1265.3 411.482 1270.37 411.482C1274.01 411.482 1276.81 410.127 1278.79 407.415C1280.77 404.703 1281.79 400.604 1281.85 395.117V393.634ZM1299.13 393.634C1299.13 388.562 1300.14 384 1302.14 379.948C1304.15 375.865 1306.98 372.739 1310.61 370.569C1314.25 368.368 1318.43 367.268 1323.15 367.268C1330.14 367.268 1335.8 369.517 1340.14 374.015C1344.51 378.513 1346.87 384.478 1347.22 391.911L1347.27 394.639C1347.27 399.743 1346.28 404.305 1344.3 408.324C1342.36 412.344 1339.55 415.454 1335.88 417.655C1332.24 419.856 1328.03 420.957 1323.25 420.957C1315.94 420.957 1310.09 418.533 1305.69 413.684C1301.32 408.803 1299.13 402.311 1299.13 394.208V393.634ZM1310.76 394.639C1310.76 399.966 1311.86 404.145 1314.06 407.176C1316.26 410.174 1319.32 411.674 1323.25 411.674C1327.17 411.674 1330.22 410.143 1332.39 407.08C1334.59 404.018 1335.69 399.535 1335.69 393.634C1335.69 388.402 1334.56 384.255 1332.29 381.192C1330.06 378.13 1327.01 376.599 1323.15 376.599C1319.36 376.599 1316.34 378.114 1314.11 381.145C1311.87 384.143 1310.76 388.641 1310.76 394.639ZM1369.71 355.64V368.225H1378.85V376.838H1369.71V405.74C1369.71 407.718 1370.1 409.154 1370.86 410.047C1371.66 410.908 1373.06 411.339 1375.07 411.339C1376.41 411.339 1377.77 411.179 1379.14 410.86V419.856C1376.49 420.59 1373.94 420.957 1371.48 420.957C1362.55 420.957 1358.09 416.028 1358.09 406.171V376.838H1349.57V368.225H1358.09V355.64H1369.71ZM1398.19 420H1386.56V368.225H1398.19V420ZM1385.84 354.778C1385.84 352.992 1386.4 351.508 1387.52 350.328C1388.66 349.148 1390.29 348.558 1392.4 348.558C1394.5 348.558 1396.13 349.148 1397.28 350.328C1398.43 351.508 1399 352.992 1399 354.778C1399 356.533 1398.43 358 1397.28 359.181C1396.13 360.329 1394.5 360.903 1392.4 360.903C1390.29 360.903 1388.66 360.329 1387.52 359.181C1386.4 358 1385.84 356.533 1385.84 354.778ZM1430.2 411.674C1433.1 411.674 1435.51 410.828 1437.43 409.138C1439.34 407.447 1440.36 405.357 1440.49 402.869H1451.45C1451.32 406.091 1450.32 409.106 1448.43 411.913C1446.55 414.688 1444 416.89 1440.78 418.517C1437.55 420.144 1434.08 420.957 1430.35 420.957C1423.1 420.957 1417.36 418.612 1413.12 413.923C1408.88 409.233 1406.75 402.757 1406.75 394.495V393.299C1406.75 385.419 1408.86 379.119 1413.07 374.397C1417.28 369.644 1423.02 367.268 1430.3 367.268C1436.45 367.268 1441.46 369.07 1445.32 372.675C1449.21 376.248 1451.26 380.953 1451.45 386.791H1440.49C1440.36 383.824 1439.34 381.384 1437.43 379.47C1435.54 377.556 1433.14 376.599 1430.2 376.599C1426.44 376.599 1423.53 377.97 1421.49 380.714C1419.45 383.425 1418.41 387.557 1418.38 393.107V394.974C1418.38 400.588 1419.39 404.783 1421.4 407.559C1423.44 410.302 1426.37 411.674 1430.2 411.674ZM1487.29 405.932C1487.29 403.858 1486.43 402.279 1484.71 401.194C1483.02 400.11 1480.19 399.153 1476.24 398.323C1472.28 397.494 1468.98 396.441 1466.33 395.165C1460.53 392.358 1457.62 388.29 1457.62 382.963C1457.62 378.497 1459.5 374.764 1463.27 371.766C1467.03 368.767 1471.82 367.268 1477.62 367.268C1483.81 367.268 1488.81 368.799 1492.6 371.861C1496.43 374.924 1498.34 378.896 1498.34 383.776H1486.72C1486.72 381.543 1485.89 379.693 1484.23 378.226C1482.57 376.726 1480.37 375.977 1477.62 375.977C1475.07 375.977 1472.98 376.567 1471.36 377.747C1469.76 378.927 1468.96 380.507 1468.96 382.484C1468.96 384.271 1469.71 385.659 1471.21 386.647C1472.71 387.636 1475.74 388.641 1480.3 389.662C1484.87 390.651 1488.44 391.847 1491.02 393.251C1493.64 394.623 1495.57 396.282 1496.81 398.228C1498.09 400.174 1498.73 402.534 1498.73 405.31C1498.73 409.967 1496.8 413.747 1492.94 416.65C1489.08 419.521 1484.02 420.957 1477.77 420.957C1473.52 420.957 1469.74 420.191 1466.43 418.66C1463.11 417.129 1460.53 415.023 1458.68 412.344C1456.82 409.664 1455.9 406.777 1455.9 403.683H1467.19C1467.35 406.426 1468.39 408.548 1470.3 410.047C1472.22 411.514 1474.75 412.248 1477.91 412.248C1480.97 412.248 1483.3 411.674 1484.9 410.525C1486.49 409.345 1487.29 407.814 1487.29 405.932ZM1566.92 402.056C1566.92 398.993 1565.83 396.632 1563.67 394.974C1561.53 393.315 1557.65 391.64 1552.04 389.949C1546.42 388.258 1541.96 386.376 1538.64 384.303C1532.29 380.315 1529.12 375.115 1529.12 368.703C1529.12 363.089 1531.4 358.463 1535.96 354.826C1540.55 351.189 1546.5 349.371 1553.81 349.371C1558.66 349.371 1562.98 350.264 1566.78 352.051C1570.57 353.837 1573.55 356.389 1575.72 359.707C1577.89 362.993 1578.98 366.646 1578.98 370.665H1566.92C1566.92 367.028 1565.77 364.189 1563.47 362.147C1561.21 360.074 1557.95 359.037 1553.71 359.037C1549.76 359.037 1546.68 359.882 1544.48 361.573C1542.31 363.264 1541.22 365.625 1541.22 368.655C1541.22 371.207 1542.4 373.345 1544.76 375.067C1547.12 376.758 1551.02 378.417 1556.44 380.044C1561.86 381.639 1566.22 383.473 1569.5 385.547C1572.79 387.589 1575.2 389.949 1576.73 392.629C1578.26 395.277 1579.03 398.387 1579.03 401.96C1579.03 407.766 1576.79 412.392 1572.33 415.837C1567.89 419.25 1561.86 420.957 1554.24 420.957C1549.2 420.957 1544.56 420.032 1540.31 418.182C1536.1 416.299 1532.82 413.715 1530.46 410.43C1528.13 407.144 1526.96 403.316 1526.96 398.945H1539.07C1539.07 402.901 1540.38 405.964 1542.99 408.133C1545.61 410.302 1549.36 411.387 1554.24 411.387C1558.45 411.387 1561.61 410.541 1563.71 408.851C1565.85 407.128 1566.92 404.863 1566.92 402.056ZM1584.39 393.634C1584.39 388.562 1585.39 384 1587.4 379.948C1589.41 375.865 1592.23 372.739 1595.87 370.569C1599.51 368.368 1603.69 367.268 1608.41 367.268C1615.39 367.268 1621.06 369.517 1625.4 374.015C1629.77 378.513 1632.13 384.478 1632.48 391.911L1632.53 394.639C1632.53 399.743 1631.54 404.305 1629.56 408.324C1627.61 412.344 1624.81 415.454 1621.14 417.655C1617.5 419.856 1613.29 420.957 1608.5 420.957C1601.2 420.957 1595.34 418.533 1590.94 413.684C1586.57 408.803 1584.39 402.311 1584.39 394.208V393.634ZM1596.01 394.639C1596.01 399.966 1597.12 404.145 1599.32 407.176C1601.52 410.174 1604.58 411.674 1608.5 411.674C1612.43 411.674 1615.47 410.143 1617.64 407.08C1619.84 404.018 1620.95 399.535 1620.95 393.634C1620.95 388.402 1619.81 384.255 1617.55 381.192C1615.31 378.13 1612.27 376.599 1608.41 376.599C1604.61 376.599 1601.6 378.114 1599.36 381.145C1597.13 384.143 1596.01 388.641 1596.01 394.639ZM1661.67 411.674C1664.57 411.674 1666.98 410.828 1668.89 409.138C1670.81 407.447 1671.83 405.357 1671.96 402.869H1682.92C1682.79 406.091 1681.78 409.106 1679.9 411.913C1678.02 414.688 1675.47 416.89 1672.24 418.517C1669.02 420.144 1665.55 420.957 1661.81 420.957C1654.57 420.957 1648.83 418.612 1644.59 413.923C1640.34 409.233 1638.22 402.757 1638.22 394.495V393.299C1638.22 385.419 1640.33 379.119 1644.54 374.397C1648.75 369.644 1654.49 367.268 1661.76 367.268C1667.92 367.268 1672.93 369.07 1676.79 372.675C1680.68 376.248 1682.72 380.953 1682.92 386.791H1671.96C1671.83 383.824 1670.81 381.384 1668.89 379.47C1667.01 377.556 1664.6 376.599 1661.67 376.599C1657.9 376.599 1655 377.97 1652.96 380.714C1650.92 383.425 1649.88 387.557 1649.85 393.107V394.974C1649.85 400.588 1650.85 404.783 1652.86 407.559C1654.91 410.302 1657.84 411.674 1661.67 411.674ZM1702.11 420H1690.48V368.225H1702.11V420ZM1689.76 354.778C1689.76 352.992 1690.32 351.508 1691.43 350.328C1692.58 349.148 1694.21 348.558 1696.32 348.558C1698.42 348.558 1700.05 349.148 1701.2 350.328C1702.34 351.508 1702.92 352.992 1702.92 354.778C1702.92 356.533 1702.34 358 1701.2 359.181C1700.05 360.329 1698.42 360.903 1696.32 360.903C1694.21 360.903 1692.58 360.329 1691.43 359.181C1690.32 358 1689.76 356.533 1689.76 354.778ZM1735.65 420.957C1728.28 420.957 1722.3 418.644 1717.71 414.019C1713.15 409.361 1710.86 403.172 1710.86 395.452V394.017C1710.86 388.849 1711.85 384.239 1713.83 380.188C1715.84 376.104 1718.65 372.93 1722.25 370.665C1725.86 368.4 1729.88 367.268 1734.31 367.268C1741.36 367.268 1746.8 369.517 1750.63 374.015C1754.49 378.513 1756.42 384.877 1756.42 393.107V397.797H1722.59C1722.94 402.072 1724.36 405.453 1726.85 407.941C1729.37 410.43 1732.53 411.674 1736.32 411.674C1741.65 411.674 1745.99 409.521 1749.34 405.214L1755.61 411.195C1753.53 414.29 1750.76 416.698 1747.28 418.421C1743.83 420.112 1739.96 420.957 1735.65 420.957ZM1734.26 376.599C1731.07 376.599 1728.49 377.715 1726.51 379.948C1724.57 382.181 1723.32 385.292 1722.78 389.279H1744.93V388.418C1744.68 384.526 1743.64 381.591 1741.82 379.613C1740.01 377.604 1737.49 376.599 1734.26 376.599ZM1778.1 355.64V368.225H1787.24V376.838H1778.1V405.74C1778.1 407.718 1778.48 409.154 1779.25 410.047C1780.04 410.908 1781.45 411.339 1783.46 411.339C1784.8 411.339 1786.15 411.179 1787.52 410.86V419.856C1784.88 420.59 1782.32 420.957 1779.87 420.957C1770.94 420.957 1766.47 416.028 1766.47 406.171V376.838H1757.95V368.225H1766.47V355.64H1778.1ZM1812.31 403.348L1822.84 368.225H1835.23L1814.66 427.848C1811.5 436.557 1806.14 440.911 1798.58 440.911C1796.89 440.911 1795.02 440.624 1792.98 440.05V431.054L1795.18 431.197C1798.12 431.197 1800.32 430.655 1801.79 429.57C1803.29 428.518 1804.47 426.731 1805.33 424.211L1807 419.761L1788.82 368.225H1801.36L1812.31 403.348Z" fill="white"/>
<path d="M480.933 318C451.5 318 425.654 312.806 403.394 302.418C381.134 291.783 363.821 276.695 351.454 257.156C339.335 237.617 333.275 214.615 333.275 188.15C333.275 161.685 339.335 138.189 351.454 117.66C363.821 97.1313 380.516 81.302 401.539 70.172C422.81 58.7946 446.554 53.106 472.771 53.106C498.741 53.106 522.238 58.7946 543.261 70.172C564.532 81.302 581.227 97.1313 593.346 117.66C605.465 138.189 611.525 161.685 611.525 188.15C611.525 202.99 607.939 217.706 600.766 232.299C593.841 246.644 585.184 258.145 574.796 266.802H618.203V318H480.933ZM472.771 261.979C485.88 261.979 497.875 259.011 508.758 253.075C519.641 247.139 528.297 238.606 534.728 227.476C541.159 216.346 544.374 203.361 544.374 188.521C544.374 173.681 541.159 160.82 534.728 149.937C528.545 138.807 520.012 130.274 509.129 124.338C498.246 118.155 486.127 115.063 472.771 115.063C459.168 115.063 446.925 118.155 436.042 124.338C425.159 130.274 416.503 138.807 410.072 149.937C403.889 160.82 400.797 173.681 400.797 188.521C400.797 203.361 403.889 216.346 410.072 227.476C416.503 238.606 425.159 247.139 436.042 253.075C447.172 259.011 459.415 261.979 472.771 261.979Z" fill="#A099CB"/>
<path d="M166.893 327L235.992 466.071" stroke="#A099CB" stroke-width="40"/>
<path d="M253 478.135L409.832 508.035" stroke="#A099CB" stroke-width="40"/>
<circle cx="420.909" cy="514.909" r="49.9086" fill="#A099CB"/>
</svg>
